<svg width="20" height="20" viewBox="0 0 20 20" fill="none" xmlns="http://www.w3.org/2000/svg">
<path d="M10 0.833374C4.93337 0.833374 0.833374 4.93338 0.833374 10C0.833374 15.0667 4.93337 19.1667 10 19.1667C15.0667 19.1667 19.1667 15.0667 19.1667 10C19.1667 4.93338 15.0667 0.833374 10 0.833374ZM10 16.6667C8.23193 16.6667 6.53624 15.9643 5.28599 14.7141C4.03575 13.4639 3.33337 11.7682 3.33337 10C3.33337 8.23194 4.03575 6.53624 5.28599 5.286C6.53624 4.03576 8.23193 3.33338 10 3.33338C11.7681 3.33338 13.4638 4.03576 14.7141 5.286C15.9643 6.53624 16.6667 8.23194 16.6667 10C16.6667 11.7682 15.9643 13.4639 14.7141 14.7141C13.4638 15.9643 11.7681 16.6667 10 16.6667ZM10.8334 11.25C10.8334 11.7751 11.1667 12.2501 11.6667 12.4251V15.0001H8.33337V9.92505C8.98337 9.70005 9.32504 9.00005 9.10837 8.33338C9.04442 8.1569 8.94154 7.99709 8.80738 7.86581C8.67321 7.73453 8.5112 7.63515 8.33337 7.57505V5.00004H11.6667V10.075C11.1667 10.25 10.8334 10.725 10.8334 11.25Z" fill="black"/>
</svg>
